<svg width="676" height="676" viewBox="0 0 676 676" fill="none" xmlns="http://www.w3.org/2000/svg">
<path d="M158.184 563.333C145.209 563.333 134.383 558.996 125.708 550.32C117.032 541.645 112.685 530.81 112.667 517.816V158.184C112.667 145.209 117.014 134.383 125.708 125.708C134.402 117.033 145.227 112.685 158.184 112.667H517.844C530.801 112.667 541.626 117.014 550.32 125.708C559.014 134.402 563.352 145.227 563.333 158.184V517.844C563.333 530.801 558.996 541.626 550.32 550.32C541.645 559.014 530.81 563.352 517.816 563.333H158.184ZM158.184 535.167H517.844C522.163 535.167 526.135 533.364 529.759 529.759C533.383 526.153 535.185 522.172 535.167 517.816V158.184C535.167 153.846 533.364 149.865 529.759 146.241C526.153 142.617 522.172 140.815 517.816 140.833H158.184C153.846 140.833 149.865 142.636 146.241 146.241C142.617 149.847 140.815 153.828 140.833 158.184V517.844C140.833 522.163 142.636 526.135 146.241 529.759C149.847 533.383 153.818 535.185 158.156 535.167M211.25 464.75H469.088L389.46 358.562L315.805 451.737L266.513 392.165L211.25 464.75Z" fill="black"/>
</svg>
